M48
INCH,TZ
T1C0.0118
T2C0.0157
T3C0.0314
T4C0.0394
%
G90
G05
T1
X49125Y-41475
X49625Y-38650
X50125Y-38625
X50625Y-38625
X51125Y-38625
X51125Y-38625
X51375Y-40250
X53850Y-40300
X54200Y-40300
X54700Y-40300
X54750Y-34934
X55076Y-34937
X55200Y-40300
X55700Y-40300
X55848Y-34934
X56200Y-40300
X56700Y-40300
X56975Y-37350
X60700Y-41500
X61000Y-34625
X61089Y-41523
X61600Y-40377
X61825Y-35500
X62000Y-41700
X62550Y-35375
X62600Y-39200
X63100Y-39202
T2
X48500Y-38075
X53275Y-40900
X53300Y-38075
X59200Y-40925
X59725Y-38075
X65075Y-40925
X65200Y-38075
T3
X48500Y-37000
X48500Y-43000
X49500Y-37000
X49500Y-43000
X50500Y-37000
X50500Y-43000
X51500Y-37000
X51500Y-43000
X52500Y-37000
X52500Y-43000
X53500Y-37000
X53500Y-43000
X54500Y-37000
X54500Y-43000
X55500Y-37000
X55500Y-43000
X56500Y-37000
X56500Y-43000
X57500Y-37000
X57500Y-43000
X58500Y-37000
X58500Y-43000
X59500Y-37000
X59500Y-43000
X60500Y-37000
X60500Y-43000
X61500Y-37000
X61500Y-43000
X62500Y-37000
X62500Y-43000
X63500Y-37000
X63500Y-43000
X64500Y-37000
X64500Y-43000
X65500Y-37000
X65500Y-43000
X66500Y-37000
X66500Y-43000
X67500Y-37000
X67500Y-43000
X68500Y-37000
X68500Y-43000
X69500Y-37000
X69500Y-43000
X70500Y-37000
X70500Y-43000
X71500Y-37000
X71500Y-43000
X48500Y-36000
X48500Y-42000
X49500Y-36000
X49500Y-42000
X50500Y-36000
X50500Y-42000
X51500Y-36000
X51500Y-42000
X52500Y-36000
X52500Y-42000
X53500Y-36000
X53500Y-42000
X54500Y-36000
X54500Y-42000
X55500Y-36000
X55500Y-42000
X56500Y-36000
X56500Y-42000
X57500Y-36000
X57500Y-42000
X58500Y-36000
X58500Y-42000
X59500Y-36000
X59500Y-42000
X60500Y-36000
X60500Y-42000
X61500Y-36000
X61500Y-42000
X62500Y-36000
X62500Y-42000
X63500Y-36000
X63500Y-42000
X64500Y-36000
X64500Y-42000
X65500Y-36000
X65500Y-42000
X66500Y-36000
X66500Y-42000
X67500Y-36000
X67500Y-42000
X68500Y-36000
X68500Y-42000
X69500Y-36000
X69500Y-42000
X70500Y-36000
X70500Y-42000
X71500Y-36000
X71500Y-42000
T4
X58500Y-33000
X58500Y-34000
X59500Y-33000
X59500Y-34000
X60500Y-33000
X60500Y-34000
X61500Y-33000
X61500Y-34000
X62500Y-33000
X62500Y-34000
X63500Y-33000
X63500Y-34000
X64500Y-33000
X64500Y-34000
X65500Y-33000
X65500Y-34000
X66500Y-33000
X66500Y-34000
X67500Y-33000
X67500Y-34000
X68500Y-33000
X68500Y-34000
X69500Y-33000
X69500Y-34000
X70500Y-33000
X70500Y-34000
X48500Y-33000
X48500Y-34000
X49500Y-33000
X49500Y-34000
X50500Y-33000
X50500Y-34000
X51500Y-33000
X51500Y-34000
X52500Y-33000
X52500Y-34000
X53500Y-33000
X53500Y-34000
X54500Y-33000
X54500Y-34000
X55500Y-33000
X55500Y-34000
T0
M30
