G04 #@! TF.GenerationSoftware,KiCad,Pcbnew,5.1.5*
G04 #@! TF.CreationDate,2020-05-31T21:03:52+02:00*
G04 #@! TF.ProjectId,PIV_DeniseAdap,5049565f-4465-46e6-9973-65416461702e,rev?*
G04 #@! TF.SameCoordinates,Original*
G04 #@! TF.FileFunction,Copper,L1,Top*
G04 #@! TF.FilePolarity,Positive*
%FSLAX46Y46*%
G04 Gerber Fmt 4.6, Leading zero omitted, Abs format (unit mm)*
G04 Created by KiCad (PCBNEW 5.1.5) date 2020-05-31 21:03:52*
%MOMM*%
%LPD*%
G04 APERTURE LIST*
%ADD10C,0.152400*%
%ADD11R,0.568000X1.741399*%
%ADD12O,1.700000X1.700000*%
%ADD13R,1.700000X1.700000*%
%ADD14C,1.399540*%
%ADD15R,1.399540X1.399540*%
%ADD16C,0.800000*%
%ADD17C,0.600000*%
%ADD18C,0.508000*%
%ADD19C,0.254000*%
G04 APERTURE END LIST*
D10*
X172405523Y-97728919D02*
X172405523Y-96712919D01*
X172792571Y-96712919D01*
X172889333Y-96761300D01*
X172937714Y-96809680D01*
X172986095Y-96906442D01*
X172986095Y-97051585D01*
X172937714Y-97148347D01*
X172889333Y-97196728D01*
X172792571Y-97245109D01*
X172405523Y-97245109D01*
X173421523Y-97728919D02*
X173421523Y-97051585D01*
X173421523Y-96712919D02*
X173373142Y-96761300D01*
X173421523Y-96809680D01*
X173469904Y-96761300D01*
X173421523Y-96712919D01*
X173421523Y-96809680D01*
X174340761Y-97680538D02*
X174244000Y-97728919D01*
X174050476Y-97728919D01*
X173953714Y-97680538D01*
X173905333Y-97632157D01*
X173856952Y-97535395D01*
X173856952Y-97245109D01*
X173905333Y-97148347D01*
X173953714Y-97099966D01*
X174050476Y-97051585D01*
X174244000Y-97051585D01*
X174340761Y-97099966D01*
X175211619Y-97728919D02*
X175211619Y-97196728D01*
X175163238Y-97099966D01*
X175066476Y-97051585D01*
X174872952Y-97051585D01*
X174776190Y-97099966D01*
X175211619Y-97680538D02*
X175114857Y-97728919D01*
X174872952Y-97728919D01*
X174776190Y-97680538D01*
X174727809Y-97583776D01*
X174727809Y-97487014D01*
X174776190Y-97390252D01*
X174872952Y-97341871D01*
X175114857Y-97341871D01*
X175211619Y-97293490D01*
X175647047Y-97680538D02*
X175743809Y-97728919D01*
X175937333Y-97728919D01*
X176034095Y-97680538D01*
X176082476Y-97583776D01*
X176082476Y-97535395D01*
X176034095Y-97438633D01*
X175937333Y-97390252D01*
X175792190Y-97390252D01*
X175695428Y-97341871D01*
X175647047Y-97245109D01*
X175647047Y-97196728D01*
X175695428Y-97099966D01*
X175792190Y-97051585D01*
X175937333Y-97051585D01*
X176034095Y-97099966D01*
X176469523Y-97680538D02*
X176566285Y-97728919D01*
X176759809Y-97728919D01*
X176856571Y-97680538D01*
X176904952Y-97583776D01*
X176904952Y-97535395D01*
X176856571Y-97438633D01*
X176759809Y-97390252D01*
X176614666Y-97390252D01*
X176517904Y-97341871D01*
X176469523Y-97245109D01*
X176469523Y-97196728D01*
X176517904Y-97099966D01*
X176614666Y-97051585D01*
X176759809Y-97051585D01*
X176856571Y-97099966D01*
X177485523Y-97728919D02*
X177388761Y-97680538D01*
X177340380Y-97632157D01*
X177292000Y-97535395D01*
X177292000Y-97245109D01*
X177340380Y-97148347D01*
X177388761Y-97099966D01*
X177485523Y-97051585D01*
X177630666Y-97051585D01*
X177727428Y-97099966D01*
X177775809Y-97148347D01*
X177824190Y-97245109D01*
X177824190Y-97535395D01*
X177775809Y-97632157D01*
X177727428Y-97680538D01*
X177630666Y-97728919D01*
X177485523Y-97728919D01*
X178259619Y-97728919D02*
X178259619Y-96712919D01*
X178598285Y-96712919D02*
X178936952Y-97728919D01*
X179275619Y-96712919D01*
X170276761Y-99405319D02*
X170276761Y-98389319D01*
X170518666Y-98389319D01*
X170663809Y-98437700D01*
X170760571Y-98534461D01*
X170808952Y-98631223D01*
X170857333Y-98824747D01*
X170857333Y-98969890D01*
X170808952Y-99163414D01*
X170760571Y-99260176D01*
X170663809Y-99356938D01*
X170518666Y-99405319D01*
X170276761Y-99405319D01*
X171679809Y-99356938D02*
X171583047Y-99405319D01*
X171389523Y-99405319D01*
X171292761Y-99356938D01*
X171244380Y-99260176D01*
X171244380Y-98873128D01*
X171292761Y-98776366D01*
X171389523Y-98727985D01*
X171583047Y-98727985D01*
X171679809Y-98776366D01*
X171728190Y-98873128D01*
X171728190Y-98969890D01*
X171244380Y-99066652D01*
X172163619Y-98727985D02*
X172163619Y-99405319D01*
X172163619Y-98824747D02*
X172212000Y-98776366D01*
X172308761Y-98727985D01*
X172453904Y-98727985D01*
X172550666Y-98776366D01*
X172599047Y-98873128D01*
X172599047Y-99405319D01*
X173082857Y-99405319D02*
X173082857Y-98727985D01*
X173082857Y-98389319D02*
X173034476Y-98437700D01*
X173082857Y-98486080D01*
X173131238Y-98437700D01*
X173082857Y-98389319D01*
X173082857Y-98486080D01*
X173518285Y-99356938D02*
X173615047Y-99405319D01*
X173808571Y-99405319D01*
X173905333Y-99356938D01*
X173953714Y-99260176D01*
X173953714Y-99211795D01*
X173905333Y-99115033D01*
X173808571Y-99066652D01*
X173663428Y-99066652D01*
X173566666Y-99018271D01*
X173518285Y-98921509D01*
X173518285Y-98873128D01*
X173566666Y-98776366D01*
X173663428Y-98727985D01*
X173808571Y-98727985D01*
X173905333Y-98776366D01*
X174776190Y-99356938D02*
X174679428Y-99405319D01*
X174485904Y-99405319D01*
X174389142Y-99356938D01*
X174340761Y-99260176D01*
X174340761Y-98873128D01*
X174389142Y-98776366D01*
X174485904Y-98727985D01*
X174679428Y-98727985D01*
X174776190Y-98776366D01*
X174824571Y-98873128D01*
X174824571Y-98969890D01*
X174340761Y-99066652D01*
X175985714Y-99115033D02*
X176469523Y-99115033D01*
X175888952Y-99405319D02*
X176227619Y-98389319D01*
X176566285Y-99405319D01*
X177340380Y-99405319D02*
X177340380Y-98389319D01*
X177340380Y-99356938D02*
X177243619Y-99405319D01*
X177050095Y-99405319D01*
X176953333Y-99356938D01*
X176904952Y-99308557D01*
X176856571Y-99211795D01*
X176856571Y-98921509D01*
X176904952Y-98824747D01*
X176953333Y-98776366D01*
X177050095Y-98727985D01*
X177243619Y-98727985D01*
X177340380Y-98776366D01*
X178259619Y-99405319D02*
X178259619Y-98873128D01*
X178211238Y-98776366D01*
X178114476Y-98727985D01*
X177920952Y-98727985D01*
X177824190Y-98776366D01*
X178259619Y-99356938D02*
X178162857Y-99405319D01*
X177920952Y-99405319D01*
X177824190Y-99356938D01*
X177775809Y-99260176D01*
X177775809Y-99163414D01*
X177824190Y-99066652D01*
X177920952Y-99018271D01*
X178162857Y-99018271D01*
X178259619Y-98969890D01*
X178743428Y-98727985D02*
X178743428Y-99743985D01*
X178743428Y-98776366D02*
X178840190Y-98727985D01*
X179033714Y-98727985D01*
X179130476Y-98776366D01*
X179178857Y-98824747D01*
X179227238Y-98921509D01*
X179227238Y-99211795D01*
X179178857Y-99308557D01*
X179130476Y-99356938D01*
X179033714Y-99405319D01*
X178840190Y-99405319D01*
X178743428Y-99356938D01*
X179517523Y-98727985D02*
X179904571Y-98727985D01*
X179662666Y-98389319D02*
X179662666Y-99260176D01*
X179711047Y-99356938D01*
X179807809Y-99405319D01*
X179904571Y-99405319D01*
X180630285Y-99356938D02*
X180533523Y-99405319D01*
X180340000Y-99405319D01*
X180243238Y-99356938D01*
X180194857Y-99260176D01*
X180194857Y-98873128D01*
X180243238Y-98776366D01*
X180340000Y-98727985D01*
X180533523Y-98727985D01*
X180630285Y-98776366D01*
X180678666Y-98873128D01*
X180678666Y-98969890D01*
X180194857Y-99066652D01*
X181114095Y-99405319D02*
X181114095Y-98727985D01*
X181114095Y-98921509D02*
X181162476Y-98824747D01*
X181210857Y-98776366D01*
X181307619Y-98727985D01*
X181404380Y-98727985D01*
X143715619Y-84898895D02*
X144180076Y-84898895D01*
X143947847Y-85711695D02*
X143947847Y-84898895D01*
X144605828Y-84898895D02*
X144760647Y-84898895D01*
X144838057Y-84937600D01*
X144915466Y-85015009D01*
X144954171Y-85169828D01*
X144954171Y-85440761D01*
X144915466Y-85595580D01*
X144838057Y-85672990D01*
X144760647Y-85711695D01*
X144605828Y-85711695D01*
X144528419Y-85672990D01*
X144451009Y-85595580D01*
X144412304Y-85440761D01*
X144412304Y-85169828D01*
X144451009Y-85015009D01*
X144528419Y-84937600D01*
X144605828Y-84898895D01*
X145302514Y-85711695D02*
X145302514Y-84898895D01*
X145612152Y-84898895D01*
X145689561Y-84937600D01*
X145728266Y-84976304D01*
X145766971Y-85053714D01*
X145766971Y-85169828D01*
X145728266Y-85247238D01*
X145689561Y-85285942D01*
X145612152Y-85324647D01*
X145302514Y-85324647D01*
X165181642Y-89804119D02*
X165181642Y-88788119D01*
X165520309Y-89513833D01*
X165858976Y-88788119D01*
X165858976Y-89804119D01*
X166778214Y-89804119D02*
X166778214Y-89271928D01*
X166729833Y-89175166D01*
X166633071Y-89126785D01*
X166439547Y-89126785D01*
X166342785Y-89175166D01*
X166778214Y-89755738D02*
X166681452Y-89804119D01*
X166439547Y-89804119D01*
X166342785Y-89755738D01*
X166294404Y-89658976D01*
X166294404Y-89562214D01*
X166342785Y-89465452D01*
X166439547Y-89417071D01*
X166681452Y-89417071D01*
X166778214Y-89368690D01*
X167213642Y-89755738D02*
X167310404Y-89804119D01*
X167503928Y-89804119D01*
X167600690Y-89755738D01*
X167649071Y-89658976D01*
X167649071Y-89610595D01*
X167600690Y-89513833D01*
X167503928Y-89465452D01*
X167358785Y-89465452D01*
X167262023Y-89417071D01*
X167213642Y-89320309D01*
X167213642Y-89271928D01*
X167262023Y-89175166D01*
X167358785Y-89126785D01*
X167503928Y-89126785D01*
X167600690Y-89175166D01*
X167939357Y-89126785D02*
X168326404Y-89126785D01*
X168084500Y-88788119D02*
X168084500Y-89658976D01*
X168132880Y-89755738D01*
X168229642Y-89804119D01*
X168326404Y-89804119D01*
X169100500Y-89804119D02*
X169100500Y-89271928D01*
X169052119Y-89175166D01*
X168955357Y-89126785D01*
X168761833Y-89126785D01*
X168665071Y-89175166D01*
X169100500Y-89755738D02*
X169003738Y-89804119D01*
X168761833Y-89804119D01*
X168665071Y-89755738D01*
X168616690Y-89658976D01*
X168616690Y-89562214D01*
X168665071Y-89465452D01*
X168761833Y-89417071D01*
X169003738Y-89417071D01*
X169100500Y-89368690D01*
X169439166Y-88788119D02*
X170019738Y-88788119D01*
X169729452Y-89804119D02*
X169729452Y-88788119D01*
X170793833Y-89804119D02*
X170793833Y-89271928D01*
X170745452Y-89175166D01*
X170648690Y-89126785D01*
X170455166Y-89126785D01*
X170358404Y-89175166D01*
X170793833Y-89755738D02*
X170697071Y-89804119D01*
X170455166Y-89804119D01*
X170358404Y-89755738D01*
X170310023Y-89658976D01*
X170310023Y-89562214D01*
X170358404Y-89465452D01*
X170455166Y-89417071D01*
X170697071Y-89417071D01*
X170793833Y-89368690D01*
X171277642Y-89804119D02*
X171277642Y-88788119D01*
X171277642Y-89175166D02*
X171374404Y-89126785D01*
X171567928Y-89126785D01*
X171664690Y-89175166D01*
X171713071Y-89223547D01*
X171761452Y-89320309D01*
X171761452Y-89610595D01*
X171713071Y-89707357D01*
X171664690Y-89755738D01*
X171567928Y-89804119D01*
X171374404Y-89804119D01*
X171277642Y-89755738D01*
X172148500Y-89755738D02*
X172245261Y-89804119D01*
X172438785Y-89804119D01*
X172535547Y-89755738D01*
X172583928Y-89658976D01*
X172583928Y-89610595D01*
X172535547Y-89513833D01*
X172438785Y-89465452D01*
X172293642Y-89465452D01*
X172196880Y-89417071D01*
X172148500Y-89320309D01*
X172148500Y-89271928D01*
X172196880Y-89175166D01*
X172293642Y-89126785D01*
X172438785Y-89126785D01*
X172535547Y-89175166D01*
X174422404Y-89320309D02*
X174374023Y-89271928D01*
X174277261Y-89223547D01*
X174180500Y-89223547D01*
X174083738Y-89271928D01*
X174035357Y-89320309D01*
X173986976Y-89417071D01*
X173986976Y-89513833D01*
X174035357Y-89610595D01*
X174083738Y-89658976D01*
X174180500Y-89707357D01*
X174277261Y-89707357D01*
X174374023Y-89658976D01*
X174422404Y-89610595D01*
X174422404Y-89223547D02*
X174422404Y-89610595D01*
X174470785Y-89658976D01*
X174519166Y-89658976D01*
X174615928Y-89610595D01*
X174664309Y-89513833D01*
X174664309Y-89271928D01*
X174567547Y-89126785D01*
X174422404Y-89030023D01*
X174228880Y-88981642D01*
X174035357Y-89030023D01*
X173890214Y-89126785D01*
X173793452Y-89271928D01*
X173745071Y-89465452D01*
X173793452Y-89658976D01*
X173890214Y-89804119D01*
X174035357Y-89900880D01*
X174228880Y-89949261D01*
X174422404Y-89900880D01*
X174567547Y-89804119D01*
X176309261Y-89804119D02*
X176309261Y-89271928D01*
X176260880Y-89175166D01*
X176164119Y-89126785D01*
X175970595Y-89126785D01*
X175873833Y-89175166D01*
X176309261Y-89755738D02*
X176212500Y-89804119D01*
X175970595Y-89804119D01*
X175873833Y-89755738D01*
X175825452Y-89658976D01*
X175825452Y-89562214D01*
X175873833Y-89465452D01*
X175970595Y-89417071D01*
X176212500Y-89417071D01*
X176309261Y-89368690D01*
X177325261Y-89804119D02*
X176744690Y-89804119D01*
X177034976Y-89804119D02*
X177034976Y-88788119D01*
X176938214Y-88933261D01*
X176841452Y-89030023D01*
X176744690Y-89078404D01*
X177760690Y-89804119D02*
X177760690Y-88788119D01*
X177857452Y-89417071D02*
X178147738Y-89804119D01*
X178147738Y-89126785D02*
X177760690Y-89513833D01*
D11*
X124142500Y-96748600D03*
X125412500Y-96748600D03*
X126682500Y-96748600D03*
X127952500Y-96748600D03*
X129222500Y-96748600D03*
X130492500Y-96748600D03*
X131762500Y-96748600D03*
X131762500Y-103911400D03*
X130492500Y-103911400D03*
X129222500Y-103911400D03*
X127952500Y-103911400D03*
X126682500Y-103911400D03*
X125412500Y-103911400D03*
X124142500Y-103911400D03*
X136398000Y-96748600D03*
X137668000Y-96748600D03*
X138938000Y-96748600D03*
X140208000Y-96748600D03*
X141478000Y-96748600D03*
X142748000Y-96748600D03*
X144018000Y-96748600D03*
X145288000Y-96748600D03*
X146558000Y-96748600D03*
X147828000Y-96748600D03*
X147828000Y-103911400D03*
X146558000Y-103911400D03*
X145288000Y-103911400D03*
X144018000Y-103911400D03*
X142748000Y-103911400D03*
X141478000Y-103911400D03*
X140208000Y-103911400D03*
X138938000Y-103911400D03*
X137668000Y-103911400D03*
X136398000Y-103911400D03*
X152654000Y-96748600D03*
X153924000Y-96748600D03*
X155194000Y-96748600D03*
X156464000Y-96748600D03*
X157734000Y-96748600D03*
X159004000Y-96748600D03*
X160274000Y-96748600D03*
X161544000Y-96748600D03*
X162814000Y-96748600D03*
X164084000Y-96748600D03*
X164084000Y-103911400D03*
X162814000Y-103911400D03*
X161544000Y-103911400D03*
X160274000Y-103911400D03*
X159004000Y-103911400D03*
X157734000Y-103911400D03*
X156464000Y-103911400D03*
X155194000Y-103911400D03*
X153924000Y-103911400D03*
X152654000Y-103911400D03*
D12*
X179070000Y-83820000D03*
X179070000Y-86360000D03*
X176530000Y-83820000D03*
X176530000Y-86360000D03*
X173990000Y-83820000D03*
X173990000Y-86360000D03*
X171450000Y-83820000D03*
X171450000Y-86360000D03*
X168910000Y-83820000D03*
X168910000Y-86360000D03*
X166370000Y-83820000D03*
X166370000Y-86360000D03*
X163830000Y-83820000D03*
X163830000Y-86360000D03*
X161290000Y-83820000D03*
X161290000Y-86360000D03*
X158750000Y-83820000D03*
X158750000Y-86360000D03*
X156210000Y-83820000D03*
X156210000Y-86360000D03*
X153670000Y-83820000D03*
X153670000Y-86360000D03*
X151130000Y-83820000D03*
X151130000Y-86360000D03*
X148590000Y-83820000D03*
D13*
X148590000Y-86360000D03*
D12*
X140970000Y-83820000D03*
X140970000Y-86360000D03*
X138430000Y-83820000D03*
X138430000Y-86360000D03*
X135890000Y-83820000D03*
X135890000Y-86360000D03*
X133350000Y-83820000D03*
X133350000Y-86360000D03*
X130810000Y-83820000D03*
X130810000Y-86360000D03*
X128270000Y-83820000D03*
X128270000Y-86360000D03*
X125730000Y-83820000D03*
X125730000Y-86360000D03*
X123190000Y-83820000D03*
D13*
X123190000Y-86360000D03*
D14*
X123190000Y-93980000D03*
X125730000Y-93980000D03*
X128270000Y-93980000D03*
X130810000Y-93980000D03*
X133350000Y-93980000D03*
X135890000Y-93980000D03*
X138430000Y-93980000D03*
X140970000Y-93980000D03*
X143510000Y-93980000D03*
X146050000Y-93980000D03*
X148590000Y-93980000D03*
X151130000Y-93980000D03*
X153670000Y-93980000D03*
X156210000Y-93980000D03*
X158750000Y-93980000D03*
X161290000Y-93980000D03*
X163830000Y-93980000D03*
X166370000Y-93980000D03*
X168910000Y-93980000D03*
X171450000Y-93980000D03*
X173990000Y-93980000D03*
X176530000Y-93980000D03*
X179070000Y-93980000D03*
X181610000Y-93980000D03*
X181610000Y-109220000D03*
X179070000Y-109220000D03*
X176530000Y-109220000D03*
X173990000Y-109220000D03*
X171450000Y-109220000D03*
X168910000Y-109220000D03*
X166370000Y-109220000D03*
X163830000Y-109220000D03*
X161290000Y-109220000D03*
X158750000Y-109220000D03*
X156210000Y-109220000D03*
X153670000Y-109220000D03*
X151130000Y-109220000D03*
X148590000Y-109220000D03*
X146050000Y-109220000D03*
X143510000Y-109220000D03*
X140970000Y-109220000D03*
X138430000Y-109220000D03*
X135890000Y-109220000D03*
X133350000Y-109220000D03*
X130810000Y-109220000D03*
X128270000Y-109220000D03*
X125730000Y-109220000D03*
D15*
X123190000Y-109220000D03*
D14*
X123190000Y-91440000D03*
X125730000Y-91440000D03*
X128270000Y-91440000D03*
X130810000Y-91440000D03*
X133350000Y-91440000D03*
X135890000Y-91440000D03*
X138430000Y-91440000D03*
X140970000Y-91440000D03*
X143510000Y-91440000D03*
X146050000Y-91440000D03*
X148590000Y-91440000D03*
X151130000Y-91440000D03*
X153670000Y-91440000D03*
X156210000Y-91440000D03*
X158750000Y-91440000D03*
X161290000Y-91440000D03*
X163830000Y-91440000D03*
X166370000Y-91440000D03*
X168910000Y-91440000D03*
X171450000Y-91440000D03*
X173990000Y-91440000D03*
X176530000Y-91440000D03*
X179070000Y-91440000D03*
X181610000Y-91440000D03*
X181610000Y-106680000D03*
X179070000Y-106680000D03*
X176530000Y-106680000D03*
X173990000Y-106680000D03*
X171450000Y-106680000D03*
X168910000Y-106680000D03*
X166370000Y-106680000D03*
X163830000Y-106680000D03*
X161290000Y-106680000D03*
X158750000Y-106680000D03*
X156210000Y-106680000D03*
X153670000Y-106680000D03*
X151130000Y-106680000D03*
X148590000Y-106680000D03*
X146050000Y-106680000D03*
X143510000Y-106680000D03*
X140970000Y-106680000D03*
X138430000Y-106680000D03*
X135890000Y-106680000D03*
X133350000Y-106680000D03*
X130810000Y-106680000D03*
X128270000Y-106680000D03*
X125730000Y-106680000D03*
D15*
X123190000Y-106680000D03*
D16*
X150368000Y-103949500D03*
X135318500Y-103886000D03*
X165290500Y-103949500D03*
D17*
X126047500Y-98171000D03*
X129857500Y-98107500D03*
X129857500Y-98107500D03*
X130492500Y-102235000D03*
D16*
X165608000Y-96710500D03*
X135382000Y-96710500D03*
X151701500Y-96710500D03*
X123190000Y-96710500D03*
D17*
X136779000Y-102362000D03*
X124777500Y-105346500D03*
X159004000Y-99568000D03*
X160274000Y-99572710D03*
X137668000Y-102362000D03*
X138938000Y-102362000D03*
X140208000Y-102362000D03*
X141478000Y-102362000D03*
X142748000Y-102362000D03*
X144018000Y-102362000D03*
X156464000Y-102557210D03*
X155165713Y-105468790D03*
X154178000Y-105410000D03*
X157480000Y-105918000D03*
X157035494Y-90170000D03*
X158877000Y-89852500D03*
X144716500Y-94869000D03*
X127317484Y-98107500D03*
X128587500Y-98107500D03*
X141854290Y-88733379D03*
X154940000Y-87947500D03*
X139892743Y-88740332D03*
X139065000Y-88733379D03*
D18*
X151130000Y-93980000D02*
X151130000Y-91440000D01*
X150406100Y-103911400D02*
X150368000Y-103949500D01*
X152654000Y-103911400D02*
X150406100Y-103911400D01*
X150329900Y-103911400D02*
X150368000Y-103949500D01*
X147828000Y-103911400D02*
X150329900Y-103911400D01*
X136398000Y-103911400D02*
X135343900Y-103911400D01*
X135343900Y-103911400D02*
X135318500Y-103886000D01*
X164084000Y-103911400D02*
X165252400Y-103911400D01*
X165252400Y-103911400D02*
X165290500Y-103949500D01*
D19*
X125412500Y-96748600D02*
X125412500Y-97536000D01*
X125412500Y-97536000D02*
X126047500Y-98171000D01*
X126682500Y-97536000D02*
X126682500Y-96748600D01*
X126047500Y-98171000D02*
X126682500Y-97536000D01*
X129222500Y-96748600D02*
X129222500Y-97472500D01*
X129222500Y-97472500D02*
X129857500Y-98107500D01*
X130492500Y-97472500D02*
X130492500Y-96748600D01*
X129857500Y-98107500D02*
X130492500Y-97472500D01*
X127952500Y-103911400D02*
X129222500Y-103911400D01*
X129222500Y-102786701D02*
X129837701Y-102171500D01*
X129222500Y-103911400D02*
X129222500Y-102786701D01*
X129837701Y-102171500D02*
X130429000Y-102171500D01*
X130429000Y-102171500D02*
X130492500Y-102235000D01*
X131762500Y-102786701D02*
X131762500Y-103911400D01*
X131210799Y-102235000D02*
X131762500Y-102786701D01*
X130492500Y-102235000D02*
X131210799Y-102235000D01*
D10*
X129222500Y-95758000D02*
X129222500Y-96748600D01*
X128968500Y-95504000D02*
X129222500Y-95758000D01*
X126904001Y-95504000D02*
X128968500Y-95504000D01*
X126682500Y-96748600D02*
X126682500Y-95725501D01*
X126682500Y-95725501D02*
X126904001Y-95504000D01*
D18*
X164084000Y-103911400D02*
X162814000Y-103911400D01*
X162814000Y-103911400D02*
X161544000Y-103911400D01*
X147828000Y-103911400D02*
X146558000Y-103911400D01*
X146558000Y-103911400D02*
X145288000Y-103911400D01*
X148590000Y-86360000D02*
X151130000Y-86360000D01*
X168910000Y-109220000D02*
X168910000Y-106680000D01*
X168910000Y-106680000D02*
X168910000Y-100012500D01*
X168910000Y-100012500D02*
X165608000Y-96710500D01*
X136359900Y-96710500D02*
X136398000Y-96748600D01*
X135382000Y-96710500D02*
X136359900Y-96710500D01*
X151739600Y-96748600D02*
X151701500Y-96710500D01*
X152654000Y-96748600D02*
X151739600Y-96748600D01*
X124104400Y-96710500D02*
X124142500Y-96748600D01*
X123190000Y-96710500D02*
X124104400Y-96710500D01*
D19*
X123190000Y-93980000D02*
X123190000Y-91440000D01*
X125730000Y-93980000D02*
X125730000Y-91440000D01*
X128270000Y-93980000D02*
X128270000Y-91440000D01*
X130810000Y-93980000D02*
X130810000Y-91440000D01*
X133350000Y-93980000D02*
X133350000Y-91440000D01*
X135890000Y-93980000D02*
X135890000Y-91440000D01*
X138430000Y-93980000D02*
X138430000Y-91440000D01*
X140970000Y-93980000D02*
X140970000Y-91440000D01*
X143510000Y-93980000D02*
X143510000Y-91440000D01*
X146050000Y-93980000D02*
X146050000Y-91440000D01*
X148590000Y-93980000D02*
X148590000Y-91440000D01*
X153670000Y-93980000D02*
X153670000Y-91440000D01*
X156210000Y-93980000D02*
X156210000Y-91440000D01*
X158750000Y-93980000D02*
X158750000Y-91440000D01*
X161290000Y-93980000D02*
X161290000Y-91440000D01*
X163830000Y-93980000D02*
X163830000Y-91440000D01*
D10*
X163830000Y-93980000D02*
X164846000Y-94996000D01*
X164846000Y-97638462D02*
X163614962Y-98869500D01*
X164846000Y-94996000D02*
X164846000Y-97638462D01*
X163614962Y-98869500D02*
X157480000Y-98869500D01*
X157480000Y-98869500D02*
X154876500Y-101473000D01*
X154876500Y-101473000D02*
X137668000Y-101473000D01*
X137668000Y-101473000D02*
X136779000Y-102362000D01*
X124142500Y-105092500D02*
X124142500Y-103911400D01*
X124777500Y-105346500D02*
X124396500Y-105346500D01*
X124396500Y-105346500D02*
X124142500Y-105092500D01*
D19*
X166370000Y-93980000D02*
X166370000Y-91440000D01*
D10*
X159004000Y-99568000D02*
X159004000Y-103911400D01*
D19*
X168910000Y-93980000D02*
X168910000Y-91440000D01*
D10*
X160274000Y-103911400D02*
X160274000Y-99572710D01*
D19*
X171450000Y-93980000D02*
X171450000Y-91440000D01*
D10*
X137668000Y-102362000D02*
X137668000Y-103911400D01*
D19*
X173990000Y-93980000D02*
X173990000Y-91440000D01*
D10*
X138938000Y-102362000D02*
X138938000Y-103911400D01*
D19*
X176530000Y-93980000D02*
X176530000Y-91440000D01*
D10*
X140208000Y-102362000D02*
X140208000Y-103911400D01*
D19*
X179070000Y-93980000D02*
X179070000Y-91440000D01*
D10*
X141478000Y-102362000D02*
X141478000Y-103911400D01*
D19*
X181610000Y-93980000D02*
X181610000Y-91440000D01*
D10*
X142748000Y-102362000D02*
X142748000Y-103911400D01*
D19*
X181610000Y-109220000D02*
X181610000Y-106680000D01*
D10*
X144018000Y-102786264D02*
X144018000Y-103911400D01*
X144018000Y-102362000D02*
X144018000Y-102786264D01*
D19*
X179070000Y-109220000D02*
X179070000Y-106680000D01*
D10*
X156464000Y-103911400D02*
X156464000Y-102557210D01*
D19*
X176530000Y-109220000D02*
X176530000Y-106680000D01*
D10*
X155194000Y-105440503D02*
X155165713Y-105468790D01*
X155194000Y-103911400D02*
X155194000Y-105440503D01*
D19*
X173990000Y-109220000D02*
X173990000Y-106680000D01*
D10*
X153924000Y-105029000D02*
X153924000Y-103911400D01*
X154178000Y-105410000D02*
X154178000Y-105283000D01*
X154178000Y-105283000D02*
X153924000Y-105029000D01*
X134199999Y-87209999D02*
X133350000Y-86360000D01*
X134556500Y-87566500D02*
X134199999Y-87209999D01*
X134556500Y-104584500D02*
X134556500Y-87566500D01*
X154178000Y-105410000D02*
X135382000Y-105410000D01*
X135382000Y-105410000D02*
X134556500Y-104584500D01*
D19*
X171450000Y-109220000D02*
X171450000Y-106680000D01*
D10*
X157480000Y-105918000D02*
X157480000Y-105410000D01*
X157734000Y-105156000D02*
X157734000Y-103911400D01*
X157480000Y-105410000D02*
X157734000Y-105156000D01*
D19*
X166370000Y-109220000D02*
X166370000Y-106680000D01*
X163830000Y-109220000D02*
X163830000Y-106680000D01*
X161290000Y-109220000D02*
X161290000Y-106680000D01*
X158750000Y-109220000D02*
X158750000Y-106680000D01*
X156210000Y-109220000D02*
X156210000Y-106680000D01*
X153670000Y-109220000D02*
X153670000Y-106680000D01*
X151130000Y-109220000D02*
X151130000Y-106680000D01*
X148590000Y-109220000D02*
X148590000Y-106680000D01*
X146050000Y-109220000D02*
X146050000Y-106680000D01*
X143510000Y-109220000D02*
X143510000Y-106680000D01*
X140970000Y-109220000D02*
X140970000Y-106680000D01*
X138430000Y-109220000D02*
X138430000Y-106680000D01*
X135890000Y-109220000D02*
X135890000Y-106680000D01*
X133350000Y-109220000D02*
X133350000Y-106680000D01*
X130810000Y-109220000D02*
X130810000Y-106680000D01*
X128270000Y-109220000D02*
X128270000Y-106680000D01*
X125730000Y-109220000D02*
X125730000Y-106680000D01*
X123190000Y-109220000D02*
X123190000Y-106680000D01*
D10*
X142430500Y-85280500D02*
X141819999Y-84669999D01*
X141819999Y-84669999D02*
X140970000Y-83820000D01*
X142748000Y-96748600D02*
X142748000Y-95360750D01*
X142430500Y-95043250D02*
X142430500Y-85280500D01*
X142748000Y-95360750D02*
X142430500Y-95043250D01*
X157318089Y-94649911D02*
X157318089Y-90876859D01*
X156464000Y-96748600D02*
X156464000Y-95504000D01*
X156464000Y-95504000D02*
X157318089Y-94649911D01*
X157318089Y-90876859D02*
X157035494Y-90594264D01*
X157035494Y-90594264D02*
X157035494Y-90170000D01*
X159893000Y-94836501D02*
X159893000Y-90868500D01*
X159176999Y-90152499D02*
X158877000Y-89852500D01*
X159004000Y-95725501D02*
X159893000Y-94836501D01*
X159893000Y-90868500D02*
X159176999Y-90152499D01*
X159004000Y-96748600D02*
X159004000Y-95725501D01*
X137160000Y-85090000D02*
X137160000Y-87058500D01*
X139771600Y-90479400D02*
X139771600Y-95289101D01*
X139771600Y-95289101D02*
X140208000Y-95725501D01*
X140208000Y-95725501D02*
X140208000Y-96748600D01*
X140468944Y-89782056D02*
X139771600Y-90479400D01*
X137160000Y-87058500D02*
X138258677Y-88157177D01*
X135890000Y-83820000D02*
X137160000Y-85090000D01*
X140468944Y-88463755D02*
X140468944Y-89782056D01*
X140162368Y-88157177D02*
X140468944Y-88463755D01*
X138258677Y-88157177D02*
X140162368Y-88157177D01*
X144018000Y-95725501D02*
X144018000Y-96748600D01*
X144716500Y-94869000D02*
X144018000Y-95567500D01*
X144018000Y-95567500D02*
X144018000Y-95725501D01*
X125412500Y-103911400D02*
X125412500Y-102108000D01*
X127317484Y-100203016D02*
X127317484Y-98107500D01*
X125412500Y-102108000D02*
X127317484Y-100203016D01*
X128587500Y-98531764D02*
X128587500Y-98107500D01*
X126682500Y-103911400D02*
X126682500Y-102116685D01*
X128587500Y-100211685D02*
X128587500Y-98531764D01*
X126682500Y-102116685D02*
X128587500Y-100211685D01*
X141478000Y-96748600D02*
X141914400Y-96748600D01*
X141854290Y-89157643D02*
X141854290Y-88733379D01*
X142078089Y-89381442D02*
X141854290Y-89157643D01*
X142078089Y-96584911D02*
X142078089Y-89381442D01*
X141914400Y-96748600D02*
X142078089Y-96584911D01*
X155194000Y-96748600D02*
X155194000Y-88201500D01*
X155194000Y-88201500D02*
X154940000Y-87947500D01*
X138938000Y-96748600D02*
X139374400Y-96748600D01*
X139374400Y-96748600D02*
X139411089Y-96711911D01*
X139411089Y-96711911D02*
X139411089Y-89221986D01*
X139411089Y-89221986D02*
X139592744Y-89040331D01*
X139592744Y-89040331D02*
X139892743Y-88740332D01*
X160274000Y-90424000D02*
X156210000Y-86360000D01*
X160274000Y-96748600D02*
X160274000Y-90424000D01*
X138765001Y-89033378D02*
X139065000Y-88733379D01*
X137668000Y-95725501D02*
X137231600Y-95289101D01*
X137668000Y-96748600D02*
X137668000Y-95725501D01*
X137231600Y-90566779D02*
X138765001Y-89033378D01*
X137231600Y-95289101D02*
X137231600Y-90566779D01*
X152820001Y-87209999D02*
X153670000Y-86360000D01*
X152590500Y-87439500D02*
X152820001Y-87209999D01*
X152590500Y-94488000D02*
X152590500Y-87439500D01*
X153924000Y-96748600D02*
X153924000Y-95821500D01*
X153924000Y-95821500D02*
X152590500Y-94488000D01*
X151979999Y-84669999D02*
X151130000Y-83820000D01*
X152400000Y-85090000D02*
X151979999Y-84669999D01*
X157734000Y-96748600D02*
X157670500Y-96685100D01*
X157670500Y-96685100D02*
X157670500Y-89789000D01*
X157670500Y-89789000D02*
X154940000Y-87058500D01*
X154940000Y-87058500D02*
X154940000Y-85963222D01*
X154940000Y-85963222D02*
X154066778Y-85090000D01*
X154066778Y-85090000D02*
X152400000Y-85090000D01*
X147828000Y-95725501D02*
X147383500Y-95281001D01*
X147828000Y-96748600D02*
X147828000Y-95725501D01*
X147383500Y-85026500D02*
X148590000Y-83820000D01*
X147383500Y-95281001D02*
X147383500Y-85026500D01*
X164084000Y-97771699D02*
X164084000Y-96748600D01*
X163557699Y-98298000D02*
X164084000Y-97771699D01*
X148272500Y-98298000D02*
X163557699Y-98298000D01*
X147828000Y-96748600D02*
X147828000Y-97853500D01*
X147828000Y-97853500D02*
X148272500Y-98298000D01*
M02*
