G04 #@! TF.GenerationSoftware,KiCad,Pcbnew,5.1.5*
G04 #@! TF.CreationDate,2020-05-31T21:03:52+02:00*
G04 #@! TF.ProjectId,PIV_DeniseAdap,5049565f-4465-46e6-9973-65416461702e,rev?*
G04 #@! TF.SameCoordinates,Original*
G04 #@! TF.FileFunction,Paste,Bot*
G04 #@! TF.FilePolarity,Positive*
%FSLAX46Y46*%
G04 Gerber Fmt 4.6, Leading zero omitted, Abs format (unit mm)*
G04 Created by KiCad (PCBNEW 5.1.5) date 2020-05-31 21:03:52*
%MOMM*%
%LPD*%
G04 APERTURE LIST*
%ADD10R,1.250000X1.500000*%
%ADD11C,1.399540*%
%ADD12R,1.399540X1.399540*%
%ADD13R,1.500000X1.250000*%
G04 APERTURE END LIST*
D10*
X124079000Y-101580000D03*
X124079000Y-99080000D03*
D11*
X123190000Y-93980000D03*
X125730000Y-93980000D03*
X128270000Y-93980000D03*
X130810000Y-93980000D03*
X133350000Y-93980000D03*
X135890000Y-93980000D03*
X138430000Y-93980000D03*
X140970000Y-93980000D03*
X143510000Y-93980000D03*
X146050000Y-93980000D03*
X148590000Y-93980000D03*
X151130000Y-93980000D03*
X153670000Y-93980000D03*
X156210000Y-93980000D03*
X158750000Y-93980000D03*
X161290000Y-93980000D03*
X163830000Y-93980000D03*
X166370000Y-93980000D03*
X168910000Y-93980000D03*
X171450000Y-93980000D03*
X173990000Y-93980000D03*
X176530000Y-93980000D03*
X179070000Y-93980000D03*
X181610000Y-93980000D03*
X181610000Y-109220000D03*
X179070000Y-109220000D03*
X176530000Y-109220000D03*
X173990000Y-109220000D03*
X171450000Y-109220000D03*
X168910000Y-109220000D03*
X166370000Y-109220000D03*
X163830000Y-109220000D03*
X161290000Y-109220000D03*
X158750000Y-109220000D03*
X156210000Y-109220000D03*
X153670000Y-109220000D03*
X151130000Y-109220000D03*
X148590000Y-109220000D03*
X146050000Y-109220000D03*
X143510000Y-109220000D03*
X140970000Y-109220000D03*
X138430000Y-109220000D03*
X135890000Y-109220000D03*
X133350000Y-109220000D03*
X130810000Y-109220000D03*
X128270000Y-109220000D03*
X125730000Y-109220000D03*
D12*
X123190000Y-109220000D03*
D11*
X123190000Y-91440000D03*
X125730000Y-91440000D03*
X128270000Y-91440000D03*
X130810000Y-91440000D03*
X133350000Y-91440000D03*
X135890000Y-91440000D03*
X138430000Y-91440000D03*
X140970000Y-91440000D03*
X143510000Y-91440000D03*
X146050000Y-91440000D03*
X148590000Y-91440000D03*
X151130000Y-91440000D03*
X153670000Y-91440000D03*
X156210000Y-91440000D03*
X158750000Y-91440000D03*
X161290000Y-91440000D03*
X163830000Y-91440000D03*
X166370000Y-91440000D03*
X168910000Y-91440000D03*
X171450000Y-91440000D03*
X173990000Y-91440000D03*
X176530000Y-91440000D03*
X179070000Y-91440000D03*
X181610000Y-91440000D03*
X181610000Y-106680000D03*
X179070000Y-106680000D03*
X176530000Y-106680000D03*
X173990000Y-106680000D03*
X171450000Y-106680000D03*
X168910000Y-106680000D03*
X166370000Y-106680000D03*
X163830000Y-106680000D03*
X161290000Y-106680000D03*
X158750000Y-106680000D03*
X156210000Y-106680000D03*
X153670000Y-106680000D03*
X151130000Y-106680000D03*
X148590000Y-106680000D03*
X146050000Y-106680000D03*
X143510000Y-106680000D03*
X140970000Y-106680000D03*
X138430000Y-106680000D03*
X135890000Y-106680000D03*
X133350000Y-106680000D03*
X130810000Y-106680000D03*
X128270000Y-106680000D03*
X125730000Y-106680000D03*
D12*
X123190000Y-106680000D03*
D13*
X154221500Y-98552000D03*
X151721500Y-98552000D03*
D10*
X135318500Y-101516500D03*
X135318500Y-99016500D03*
M02*
